<svg version="1.1" id="Layer_1" xmlns="http://www.w3.org/2000/svg" xmlns:xlink="http://www.w3.org/1999/xlink" x="0px" y="0px"
	 width="100%" viewBox="0 0 1024 1024" enable-background="new 0 0 1024 1024" xml:space="preserve">
<path fill="#000000" opacity="1.000000" stroke="none" 
	d="
M637.115356,612.940552 
	C656.885437,640.875793 666.314026,671.663940 664.044983,705.425720 
	C659.752991,769.286499 615.309265,824.575500 547.041382,837.614807 
	C483.194000,849.809692 418.082916,815.172607 390.884796,758.118164 
	C365.022064,703.864929 376.414642,636.579468 419.821411,596.203491 
	C427.606873,588.961670 430.171295,582.066895 430.136841,571.841064 
	C429.767578,462.201141 429.834015,352.559601 429.871216,242.918503 
	C429.886200,198.701340 462.224976,161.514435 506.029846,155.697647 
	C541.113831,151.038864 571.050293,161.076538 593.575439,189.172165 
	C606.792114,205.657303 611.763184,225.041977 611.673096,246.090775 
	C611.411499,307.219482 611.458862,368.349579 611.422058,429.479126 
	C611.391663,479.967316 611.463379,530.455627 611.323608,580.943481 
	C611.311829,585.203674 612.584290,587.975464 615.910706,590.661194 
	C623.832764,597.057556 630.910217,604.364136 637.115356,612.940552 
M600.492615,786.982361 
	C627.823914,762.971558 642.499268,732.548401 642.231873,696.408325 
	C641.954773,658.961121 626.808044,627.578247 596.871033,604.221863 
	C591.750244,600.226685 589.730591,595.912964 589.739563,589.433594 
	C589.895569,476.623993 589.822693,363.814056 589.879333,251.004227 
	C589.883850,242.073624 588.661560,233.436356 585.756348,225.003342 
	C574.418274,192.091415 539.621948,172.094955 506.403412,179.431564 
	C474.715149,186.430191 452.052490,215.275528 452.026550,249.080978 
	C451.939758,362.223816 451.895294,475.366852 452.074249,588.509399 
	C452.085815,595.820496 449.534668,600.371460 443.900421,604.829163 
	C416.334473,626.638855 401.820221,655.752625 399.532562,690.465393 
	C397.445801,722.130737 407.857422,750.072205 428.421753,774.268982 
	C471.968445,825.507996 550.034790,831.539307 600.492615,786.982361 
z"/>
<path fill="#000000" opacity="1.000000" stroke="none" 
	d="
M674.768677,204.762848 
	C701.992493,207.266968 727.249146,214.685440 750.152832,228.848038 
	C800.647949,260.071899 829.364929,305.473816 836.983398,364.257416 
	C837.579285,368.855011 837.394470,373.570343 837.357910,378.229279 
	C837.307556,384.651642 833.921448,388.408356 827.937500,388.993561 
	C822.088745,389.565582 817.122375,385.907959 816.171204,379.871552 
	C815.473755,375.445679 815.419983,370.922485 814.931091,366.458923 
	C810.547302,326.433685 792.862915,293.130249 763.110291,266.390137 
	C735.088196,241.205383 702.065063,227.818802 664.190308,226.903809 
	C654.535156,226.670563 649.100220,220.332901 651.413635,212.279022 
	C652.769409,207.559097 655.960693,204.954315 660.809387,204.742325 
	C665.296082,204.546158 669.799255,204.725784 674.768677,204.762848 
z"/>
<path fill="#000000" opacity="1.000000" stroke="none" 
	d="
M252.964905,532.037415 
	C232.956909,511.155273 228.395432,483.171051 240.390182,455.793762 
	C248.846207,436.493439 260.572327,419.028503 271.291565,401.000061 
	C278.014496,389.692932 285.368744,378.763580 291.425018,367.056213 
	C294.256378,361.582916 299.855743,361.191895 302.624481,366.413147 
	C314.035370,387.931396 328.272064,407.728760 340.392700,428.811432 
	C348.477417,442.873962 355.322052,457.351746 358.576111,473.448059 
	C364.087402,500.710144 351.776733,528.817261 327.981445,542.134766 
	C303.376282,555.905518 273.925812,552.026306 252.964905,532.037415 
M307.932709,402.498871 
	C304.511078,397.031982 301.089447,391.565094 297.231293,385.400726 
	C293.812531,390.962769 290.718872,395.831696 287.786469,400.795868 
	C276.615601,419.706757 264.081665,437.834686 254.819489,457.843231 
	C250.135788,467.961212 247.715591,478.559143 248.199982,489.795349 
	C249.156525,511.983643 267.732117,532.387512 290.008881,535.556763 
	C313.582001,538.910522 336.726471,524.653809 343.575043,502.430786 
	C348.447968,486.618683 345.415527,471.495728 339.169891,456.730042 
	C331.078217,437.600006 319.011963,420.752228 307.932709,402.498871 
z"/>
<path fill="#000000" opacity="1.000000" stroke="none" 
	d="
M723.490479,278.420471 
	C749.347046,295.106140 767.369019,317.422760 776.536133,346.623383 
	C779.643982,356.523071 781.266052,366.681854 781.866089,377.004211 
	C782.239685,383.432098 777.771240,388.556000 771.687195,389.047699 
	C765.397888,389.555969 760.154358,385.052429 759.912659,378.125458 
	C759.132935,355.779327 751.202087,336.242432 736.981567,319.242462 
	C718.163208,296.746094 694.123108,284.403625 664.661316,283.110901 
	C660.362732,282.922302 656.305298,282.337830 653.455078,278.729156 
	C650.778320,275.340271 650.013672,271.519958 651.770813,267.475067 
	C653.696106,263.043091 657.290894,260.921509 662.034119,260.824921 
	C677.946716,260.501007 693.114807,263.997070 707.644958,270.247803 
	C712.980835,272.543274 718.014465,275.541534 723.490479,278.420471 
z"/>
<path fill="#000000" opacity="1.000000" stroke="none" 
	d="
M729.961426,381.215942 
	C727.030029,387.266724 722.861206,389.744812 717.606628,388.896667 
	C712.252930,388.032532 709.403809,384.551941 708.649170,377.954193 
	C705.864502,353.606506 687.988770,336.485809 663.789062,334.967377 
	C662.466064,334.884338 661.122620,334.772644 659.840027,334.462097 
	C654.113586,333.075592 650.475220,328.254486 650.973206,322.830383 
	C651.529480,316.771790 655.551086,312.770844 661.907654,312.745422 
	C688.592102,312.638641 708.393433,324.771149 721.815552,347.448853 
	C727.844971,357.636078 731.086487,368.758453 729.961426,381.215942 
z"/>
<path fill="#000000" opacity="1.000000" stroke="none" 
	d="
M192.139114,692.586670 
	C191.566605,677.984253 195.929474,665.307861 203.980789,653.818604 
	C206.834595,649.746216 210.823837,648.768677 214.323135,650.953430 
	C217.957764,653.222656 218.899490,657.633362 216.279724,661.855835 
	C211.942459,668.846680 208.313416,676.077637 207.330460,684.372742 
	C206.448578,691.815002 208.618332,698.536377 212.444870,704.786499 
	C214.615540,708.331909 216.868469,711.843262 219.320709,715.197205 
	C231.742004,732.185730 231.940155,749.990234 222.905396,768.366455 
	C221.151611,771.933594 219.006516,775.341675 216.742584,778.616211 
	C213.964767,782.633972 209.308716,783.592712 205.904770,781.180054 
	C202.563919,778.812195 201.788574,774.578064 204.295914,770.510376 
	C207.356232,765.545471 210.391632,760.627075 212.145142,754.980347 
	C214.850937,746.267090 214.418701,737.873352 209.877762,729.916138 
	C207.161606,725.156555 204.202652,720.520081 201.108337,715.995422 
	C196.331406,709.010376 192.845291,701.585449 192.139114,692.586670 
z"/>
<path fill="#000000" opacity="1.000000" stroke="none" 
	d="
M314.087708,670.090210 
	C307.187927,683.335327 308.233734,695.660461 316.479065,707.582458 
	C322.529602,716.330933 328.930084,724.908203 330.658752,735.880066 
	C333.271240,752.461609 327.703247,766.687378 318.094635,779.675720 
	C315.606964,783.038330 311.874084,783.457153 308.271088,781.146912 
	C304.905823,778.989197 304.221039,774.894958 306.402191,771.016174 
	C307.951721,768.260620 309.714355,765.622192 311.204803,762.836731 
	C317.672913,750.748535 317.923279,738.790771 310.712250,726.793701 
	C306.602051,719.955444 301.359558,713.787781 298.337769,706.308044 
	C290.391418,686.638855 295.799988,669.140686 307.404663,652.825928 
	C309.628998,649.698853 313.203491,648.774841 316.728271,651.027161 
	C320.343109,653.337158 321.177979,656.777405 319.343323,660.598145 
	C317.834808,663.739685 315.965057,666.707703 314.087708,670.090210 
z"/>
<path fill="#000000" opacity="1.000000" stroke="none" 
	d="
M244.715973,698.908691 
	C241.331299,681.460815 246.605469,666.580444 256.310760,652.918152 
	C258.571655,649.735413 262.013275,648.689026 265.590607,650.804077 
	C269.273407,652.981567 270.034332,656.444519 268.627502,660.347839 
	C268.184204,661.577820 267.365112,662.687134 266.634247,663.796448 
	C256.254608,679.549866 255.561783,695.038879 267.463409,710.479187 
	C273.075745,717.760315 278.013153,725.511658 279.626709,734.841003 
	C282.551514,751.752075 277.055420,766.394470 267.167480,779.702881 
	C264.660309,783.077393 260.838867,783.599121 257.373627,781.093994 
	C254.005386,778.659058 253.145660,775.170898 255.243942,771.371216 
	C256.772858,768.602600 258.595581,765.996704 260.136169,763.234009 
	C267.362671,750.274658 267.130463,737.527466 258.892456,725.060852 
	C256.963257,722.141418 255.003906,719.241821 253.053513,716.336426 
	C249.506210,711.051941 246.494446,705.508606 244.715973,698.908691 
z"/>
<path fill="#000000" opacity="1.000000" stroke="none" 
	d="
M678.900452,397.975067 
	C671.304016,403.738129 663.379333,404.827728 655.214722,400.603302 
	C647.868713,396.802429 643.809509,390.537994 643.696411,382.104980 
	C643.574768,373.038422 649.644043,364.911957 658.332458,362.236664 
	C667.265076,359.486145 677.655945,363.007599 682.686157,370.489960 
	C687.739075,378.006165 687.300781,388.102844 681.580750,395.199005 
	C680.852295,396.102753 679.978333,396.889191 678.900452,397.975067 
z"/>
<path fill="#000000" opacity="1.000000" stroke="none" 
	d="
M557.559570,226.467880 
	C565.681702,236.009415 569.366089,246.765900 569.364441,258.904144 
	C569.347839,379.386169 569.386963,499.868225 569.254883,620.350098 
	C569.249390,625.372864 570.798889,628.509583 574.752441,631.631042 
	C615.417603,663.737244 616.865112,727.064941 577.888916,761.153687 
	C531.864746,801.406555 462.858063,784.528687 440.715424,727.603271 
	C427.411011,693.399658 438.651489,652.812195 467.851624,630.583557 
	C471.165741,628.060669 471.728882,625.325562 471.727417,621.640808 
	C471.679535,500.992126 471.689514,380.343475 471.712982,259.694794 
	C471.717163,238.189667 483.732483,220.371597 503.089020,212.981720 
	C522.409058,205.605789 543.458313,210.733597 557.559570,226.467880 
M567.305054,647.197876 
	C564.803101,645.260559 562.517456,642.906128 559.753967,641.473145 
	C554.067566,638.524292 552.639526,634.073364 552.676453,627.935181 
	C552.907166,589.603943 552.819458,551.270691 552.817810,512.938110 
	C552.814270,428.273163 552.853088,343.608124 552.735840,258.943298 
	C552.716431,244.902969 545.940979,234.613922 533.002991,229.198776 
	C520.259705,223.865158 508.421326,226.479721 498.297668,235.731781 
	C490.658966,242.712845 488.309967,251.911270 488.312866,261.991913 
	C488.348053,384.322784 488.320770,506.653687 488.394775,628.984497 
	C488.397797,633.972900 487.487030,637.676941 482.834015,640.740784 
	C461.662750,654.680847 451.522003,674.622437 452.139832,699.935547 
	C453.210114,743.785767 496.226654,775.526245 538.439941,763.881165 
	C588.855896,749.973145 608.209412,686.257324 567.305054,647.197876 
z"/>
<path fill="#000000" opacity="1.000000" stroke="none" 
	d="
M260.460541,494.079315 
	C258.337189,483.122803 260.026733,473.111847 264.782074,463.581879 
	C266.956787,459.223633 270.540131,457.667969 274.110413,459.526337 
	C278.260223,461.686371 278.283600,465.135681 276.685181,468.930908 
	C274.216675,474.791901 271.684387,480.760437 272.602570,487.231201 
	C273.895935,496.345978 278.790649,503.237579 286.902802,507.782074 
	C291.983032,510.627991 293.475555,514.012817 291.464539,517.758545 
	C289.377045,521.646606 285.415588,522.191772 280.175018,519.250000 
	C270.258850,513.683472 263.512543,505.592560 260.460541,494.079315 
z"/>
<path fill="#000000" opacity="1.000000" stroke="none" 
	d="
M534.099487,566.000000 
	C534.112427,595.165405 534.204834,623.831177 534.047607,652.495667 
	C534.025085,656.601318 535.328125,658.620667 539.123291,660.309326 
	C556.307800,667.955322 565.795349,687.147095 561.992188,705.768616 
	C558.076416,724.941162 541.649170,738.929993 522.522705,739.379456 
	C502.130219,739.858582 485.817627,727.969849 480.349274,708.643005 
	C475.170013,690.337830 482.380554,670.458130 499.292206,662.043335 
	C507.127625,658.144531 507.820343,653.460388 507.806274,646.272583 
	C507.641022,561.776550 507.699402,477.280121 507.705475,392.783813 
	C507.705597,390.952026 507.610382,389.096344 507.858246,387.292816 
	C508.718872,381.029816 513.757690,376.321808 519.943542,375.836517 
	C525.752319,375.380829 531.327209,379.271271 533.286865,385.099091 
	C534.155396,387.682159 534.132568,390.336639 534.131714,393.007996 
	C534.114136,450.505341 534.107666,508.002655 534.099487,566.000000 
z"/>
</svg>